# xmcd CD database file
#
# Track frame offsets:
#	150
#	20627
#	55002
#	74910
#	92262
#	105890
#	120832
#	138042
#	149945
#	162492
#	174917
#	198875
#	212927
#	234612
#
# Disc length: 3304 seconds
#
# Revision: 0
# Processed by: cddbd v1.5.2PL0 Copyright (c) Steve Scherf et al.
# Submitted via: CDex 1.70beta2
#
DISCID=c10ce60e
DTITLE=鈴木大介 - 鈴木大介　キネマ楽園
DYEAR=1900
DGENRE=室内楽曲
TTITLE0=イル・ポスティーノ～「イル・ポスティーノ」
TTITLE1=ニュー・シネマ・パラダイス～「ニュー・シネマ・パラダイス」
TTITLE2=夕餉の食卓～「夕餉の食卓」
TTITLE3=ひまわり～「ひまわり」
TTITLE4=SHE～「ノッティングヒルの恋人」
TTITLE5=男と女～「男と女」
TTITLE6=カヴァティーナ～「ディア・ハンター」
TTITLE7=フェン・アイ・フォール・イン・ラヴ～「めぐり逢えたら」
TTITLE8=ス・ワンダフル～「パリの恋人」
TTITLE9=カーニヴァルの朝～「黒いオルフェ」
TTITLE10=オリエント急行殺人事件～「オリエント急行殺人事件」
TTITLE11=スマイル～「モダン・タイムズ」
TTITLE12=ムーン・リヴァー～「ティファニーで朝食を」
TTITLE13=写真のように／草原写真館～「八月のクリスマス」
EXTD=
EXTT0=
EXTT1=
EXTT2=
EXTT3=
EXTT4=
EXTT5=
EXTT6=
EXTT7=
EXTT8=
EXTT9=
EXTT10=
EXTT11=
EXTT12=
EXTT13=
PLAYORDER=
